<mxfile host="app.diagrams.net" modified="2023-09-24T04:06:31.975Z" agent="Mozilla/5.0 (Windows NT 10.0; Win64; x64) AppleWebKit/537.36 (KHTML, like Gecko) Chrome/114.0.0.0 Safari/537.36" etag="X4vanVOOTMdPL2VqioSp" version="21.7.5" type="device">
  <diagram name="Page-1" id="rTMeFKpxauHEMRjTZN81">
    <mxGraphModel dx="1021" dy="536" grid="1" gridSize="10" guides="1" tooltips="1" connect="1" arrows="1" fold="1" page="1" pageScale="1" pageWidth="850" pageHeight="1100" math="0" shadow="0">
      <root>
        <mxCell id="0" />
        <mxCell id="1" parent="0" />
        <mxCell id="QDy_m5PdwNHntxYYZvBB-12" value="" style="rounded=0;whiteSpace=wrap;html=1;fillColor=#fff2cc;fontSize=13;strokeColor=#d6b656;fontStyle=1" vertex="1" parent="1">
          <mxGeometry x="39.28" y="30" width="720.72" height="430" as="geometry" />
        </mxCell>
        <mxCell id="QDy_m5PdwNHntxYYZvBB-3" value="" style="sketch=0;points=[[0,0,0],[0.25,0,0],[0.5,0,0],[0.75,0,0],[1,0,0],[0,1,0],[0.25,1,0],[0.5,1,0],[0.75,1,0],[1,1,0],[0,0.25,0],[0,0.5,0],[0,0.75,0],[1,0.25,0],[1,0.5,0],[1,0.75,0]];points=[[0,0,0],[0.25,0,0],[0.5,0,0],[0.75,0,0],[1,0,0],[0,1,0],[0.25,1,0],[0.5,1,0],[0.75,1,0],[1,1,0],[0,0.25,0],[0,0.5,0],[0,0.75,0],[1,0.25,0],[1,0.5,0],[1,0.75,0]];outlineConnect=0;fontColor=#232F3E;fillColor=#E7157B;strokeColor=#ffffff;dashed=0;verticalLabelPosition=bottom;verticalAlign=top;align=center;html=1;fontSize=13;fontStyle=1;aspect=fixed;shape=mxgraph.aws4.resourceIcon;resIcon=mxgraph.aws4.organizations;" vertex="1" parent="1">
          <mxGeometry x="50" y="40" width="40" height="40" as="geometry" />
        </mxCell>
        <mxCell id="QDy_m5PdwNHntxYYZvBB-4" value="" style="sketch=0;outlineConnect=0;fontColor=#232F3E;gradientColor=none;fillColor=#E7157B;strokeColor=none;dashed=0;verticalLabelPosition=bottom;verticalAlign=top;align=center;html=1;fontSize=13;fontStyle=1;aspect=fixed;pointerEvents=1;shape=mxgraph.aws4.organizations_management_account;" vertex="1" parent="1">
          <mxGeometry x="353.67" y="37.5" width="37.95" height="40" as="geometry" />
        </mxCell>
        <mxCell id="QDy_m5PdwNHntxYYZvBB-6" value="" style="sketch=0;outlineConnect=0;fontColor=#232F3E;gradientColor=none;fillColor=#E7157B;strokeColor=none;dashed=0;verticalLabelPosition=bottom;verticalAlign=top;align=center;html=1;fontSize=13;fontStyle=1;aspect=fixed;pointerEvents=1;shape=mxgraph.aws4.organizations_organizational_unit2;" vertex="1" parent="1">
          <mxGeometry x="368.8299999999999" y="170" width="50" height="50" as="geometry" />
        </mxCell>
        <mxCell id="QDy_m5PdwNHntxYYZvBB-69" style="edgeStyle=orthogonalEdgeStyle;rounded=0;orthogonalLoop=1;jettySize=auto;html=1;entryX=1.03;entryY=0.403;entryDx=0;entryDy=0;entryPerimeter=0;fontStyle=1" edge="1" parent="1" source="QDy_m5PdwNHntxYYZvBB-8" target="QDy_m5PdwNHntxYYZvBB-49">
          <mxGeometry relative="1" as="geometry" />
        </mxCell>
        <mxCell id="QDy_m5PdwNHntxYYZvBB-71" style="rounded=0;orthogonalLoop=1;jettySize=auto;html=1;fontStyle=1" edge="1" parent="1" source="QDy_m5PdwNHntxYYZvBB-8" target="QDy_m5PdwNHntxYYZvBB-6">
          <mxGeometry relative="1" as="geometry" />
        </mxCell>
        <mxCell id="QDy_m5PdwNHntxYYZvBB-79" style="edgeStyle=none;rounded=0;orthogonalLoop=1;jettySize=auto;html=1;exitX=1;exitY=0.5;exitDx=0;exitDy=0;entryX=-0.005;entryY=0.366;entryDx=0;entryDy=0;entryPerimeter=0;fontStyle=1" edge="1" parent="1" source="QDy_m5PdwNHntxYYZvBB-8" target="QDy_m5PdwNHntxYYZvBB-62">
          <mxGeometry relative="1" as="geometry" />
        </mxCell>
        <mxCell id="QDy_m5PdwNHntxYYZvBB-80" style="edgeStyle=none;rounded=0;orthogonalLoop=1;jettySize=auto;html=1;exitX=0.75;exitY=1;exitDx=0;exitDy=0;fontStyle=1" edge="1" parent="1" source="QDy_m5PdwNHntxYYZvBB-8" target="QDy_m5PdwNHntxYYZvBB-58">
          <mxGeometry relative="1" as="geometry" />
        </mxCell>
        <mxCell id="QDy_m5PdwNHntxYYZvBB-8" value="&lt;font style=&quot;font-size: 13px;&quot;&gt;&lt;span style=&quot;font-size: 13px;&quot;&gt;Organization Root&lt;/span&gt;&lt;/font&gt;" style="rounded=1;whiteSpace=wrap;html=1;fontSize=13;fillColor=#dae8fc;strokeColor=#6c8ebf;fontStyle=1" vertex="1" parent="1">
          <mxGeometry x="345" y="80" width="160" height="40" as="geometry" />
        </mxCell>
        <mxCell id="QDy_m5PdwNHntxYYZvBB-9" value="Management&lt;br style=&quot;font-size: 13px;&quot;&gt;Account" style="text;html=1;strokeColor=none;fillColor=none;align=center;verticalAlign=middle;whiteSpace=wrap;rounded=0;fontSize=13;fontStyle=1" vertex="1" parent="1">
          <mxGeometry x="396.64" y="40" width="86" height="35" as="geometry" />
        </mxCell>
        <mxCell id="QDy_m5PdwNHntxYYZvBB-81" style="edgeStyle=none;rounded=0;orthogonalLoop=1;jettySize=auto;html=1;exitX=0.5;exitY=1;exitDx=0;exitDy=0;fontStyle=1" edge="1" parent="1" source="QDy_m5PdwNHntxYYZvBB-15" target="QDy_m5PdwNHntxYYZvBB-16">
          <mxGeometry relative="1" as="geometry" />
        </mxCell>
        <mxCell id="QDy_m5PdwNHntxYYZvBB-82" style="edgeStyle=none;rounded=0;orthogonalLoop=1;jettySize=auto;html=1;exitX=0.5;exitY=1;exitDx=0;exitDy=0;fontStyle=1" edge="1" parent="1" source="QDy_m5PdwNHntxYYZvBB-15" target="QDy_m5PdwNHntxYYZvBB-19">
          <mxGeometry relative="1" as="geometry" />
        </mxCell>
        <mxCell id="QDy_m5PdwNHntxYYZvBB-15" value="Infrastructure" style="text;html=1;strokeColor=none;fillColor=none;align=center;verticalAlign=middle;whiteSpace=wrap;rounded=0;fontSize=13;fontStyle=1" vertex="1" parent="1">
          <mxGeometry x="354.39" y="223" width="81.17" height="10" as="geometry" />
        </mxCell>
        <mxCell id="QDy_m5PdwNHntxYYZvBB-16" value="" style="sketch=0;outlineConnect=0;fontColor=#232F3E;gradientColor=none;fillColor=#E7157B;strokeColor=none;dashed=0;verticalLabelPosition=bottom;verticalAlign=top;align=center;html=1;fontSize=13;fontStyle=1;aspect=fixed;pointerEvents=1;shape=mxgraph.aws4.organizations_organizational_unit2;" vertex="1" parent="1">
          <mxGeometry x="325.4799999999999" y="264.5" width="50" height="50" as="geometry" />
        </mxCell>
        <mxCell id="QDy_m5PdwNHntxYYZvBB-83" style="edgeStyle=none;rounded=0;orthogonalLoop=1;jettySize=auto;html=1;exitX=0.5;exitY=1;exitDx=0;exitDy=0;fontStyle=1" edge="1" parent="1" source="QDy_m5PdwNHntxYYZvBB-17" target="QDy_m5PdwNHntxYYZvBB-23">
          <mxGeometry relative="1" as="geometry" />
        </mxCell>
        <mxCell id="QDy_m5PdwNHntxYYZvBB-17" value="nonprod" style="text;html=1;strokeColor=none;fillColor=none;align=center;verticalAlign=middle;whiteSpace=wrap;rounded=0;fontSize=13;fontStyle=1" vertex="1" parent="1">
          <mxGeometry x="320.85999999999996" y="314.5" width="61.8" height="14" as="geometry" />
        </mxCell>
        <mxCell id="QDy_m5PdwNHntxYYZvBB-19" value="" style="sketch=0;outlineConnect=0;fontColor=#232F3E;gradientColor=none;fillColor=#E7157B;strokeColor=none;dashed=0;verticalLabelPosition=bottom;verticalAlign=top;align=center;html=1;fontSize=13;fontStyle=1;aspect=fixed;pointerEvents=1;shape=mxgraph.aws4.organizations_organizational_unit2;" vertex="1" parent="1">
          <mxGeometry x="427.5" y="265" width="50" height="50" as="geometry" />
        </mxCell>
        <mxCell id="QDy_m5PdwNHntxYYZvBB-84" style="edgeStyle=none;rounded=0;orthogonalLoop=1;jettySize=auto;html=1;exitX=0.5;exitY=1;exitDx=0;exitDy=0;fontStyle=1" edge="1" parent="1" source="QDy_m5PdwNHntxYYZvBB-20" target="QDy_m5PdwNHntxYYZvBB-26">
          <mxGeometry relative="1" as="geometry" />
        </mxCell>
        <mxCell id="QDy_m5PdwNHntxYYZvBB-20" value="prod" style="text;html=1;strokeColor=none;fillColor=none;align=center;verticalAlign=middle;whiteSpace=wrap;rounded=0;fontSize=13;fontStyle=1" vertex="1" parent="1">
          <mxGeometry x="431.84999999999997" y="314" width="46.74" height="15" as="geometry" />
        </mxCell>
        <mxCell id="QDy_m5PdwNHntxYYZvBB-23" value="" style="sketch=0;outlineConnect=0;fontColor=#232F3E;gradientColor=none;fillColor=#E7157B;strokeColor=none;dashed=0;verticalLabelPosition=bottom;verticalAlign=top;align=center;html=1;fontSize=13;fontStyle=1;aspect=fixed;pointerEvents=1;shape=mxgraph.aws4.organizations_account;" vertex="1" parent="1">
          <mxGeometry x="328.0399999999999" y="360" width="47.44" height="50" as="geometry" />
        </mxCell>
        <mxCell id="QDy_m5PdwNHntxYYZvBB-24" value="Shared Services&lt;br style=&quot;font-size: 12px;&quot;&gt;NonProd Account" style="text;html=1;strokeColor=none;fillColor=none;align=center;verticalAlign=middle;whiteSpace=wrap;rounded=0;fontSize=12;fontStyle=1" vertex="1" parent="1">
          <mxGeometry x="292.32" y="409.5" width="104.32" height="30" as="geometry" />
        </mxCell>
        <mxCell id="QDy_m5PdwNHntxYYZvBB-26" value="" style="sketch=0;outlineConnect=0;fontColor=#232F3E;gradientColor=none;fillColor=#E7157B;strokeColor=none;dashed=0;verticalLabelPosition=bottom;verticalAlign=top;align=center;html=1;fontSize=13;fontStyle=1;aspect=fixed;pointerEvents=1;shape=mxgraph.aws4.organizations_account;" vertex="1" parent="1">
          <mxGeometry x="432.8399999999999" y="360.5" width="47.44" height="50" as="geometry" />
        </mxCell>
        <mxCell id="QDy_m5PdwNHntxYYZvBB-27" value="Shared Services&lt;br style=&quot;font-size: 12px;&quot;&gt;NonProd Account" style="text;html=1;strokeColor=none;fillColor=none;align=center;verticalAlign=middle;whiteSpace=wrap;rounded=0;fontSize=12;fontStyle=1" vertex="1" parent="1">
          <mxGeometry x="399.95" y="409.5" width="113.22" height="30.5" as="geometry" />
        </mxCell>
        <mxCell id="QDy_m5PdwNHntxYYZvBB-32" value="" style="sketch=0;outlineConnect=0;fontColor=#232F3E;gradientColor=none;fillColor=#E7157B;strokeColor=none;dashed=0;verticalLabelPosition=bottom;verticalAlign=top;align=center;html=1;fontSize=13;fontStyle=1;aspect=fixed;pointerEvents=1;shape=mxgraph.aws4.organizations_organizational_unit2;" vertex="1" parent="1">
          <mxGeometry x="153.08999999999997" y="170" width="50" height="50" as="geometry" />
        </mxCell>
        <mxCell id="QDy_m5PdwNHntxYYZvBB-73" style="rounded=0;orthogonalLoop=1;jettySize=auto;html=1;exitX=0.5;exitY=1;exitDx=0;exitDy=0;fontStyle=1" edge="1" parent="1" source="QDy_m5PdwNHntxYYZvBB-33" target="QDy_m5PdwNHntxYYZvBB-35">
          <mxGeometry relative="1" as="geometry" />
        </mxCell>
        <mxCell id="QDy_m5PdwNHntxYYZvBB-74" style="rounded=0;orthogonalLoop=1;jettySize=auto;html=1;exitX=0.5;exitY=1;exitDx=0;exitDy=0;fontStyle=1" edge="1" parent="1" source="QDy_m5PdwNHntxYYZvBB-33" target="QDy_m5PdwNHntxYYZvBB-38">
          <mxGeometry relative="1" as="geometry" />
        </mxCell>
        <mxCell id="QDy_m5PdwNHntxYYZvBB-33" value="finance" style="text;html=1;strokeColor=none;fillColor=none;align=center;verticalAlign=middle;whiteSpace=wrap;rounded=0;fontSize=13;fontStyle=1" vertex="1" parent="1">
          <mxGeometry x="148.77" y="225.75" width="58.67" height="10" as="geometry" />
        </mxCell>
        <mxCell id="QDy_m5PdwNHntxYYZvBB-35" value="" style="sketch=0;outlineConnect=0;fontColor=#232F3E;gradientColor=none;fillColor=#E7157B;strokeColor=none;dashed=0;verticalLabelPosition=bottom;verticalAlign=top;align=center;html=1;fontSize=13;fontStyle=1;aspect=fixed;pointerEvents=1;shape=mxgraph.aws4.organizations_organizational_unit2;" vertex="1" parent="1">
          <mxGeometry x="94.99999999999996" y="265" width="50" height="50" as="geometry" />
        </mxCell>
        <mxCell id="QDy_m5PdwNHntxYYZvBB-75" style="edgeStyle=none;rounded=0;orthogonalLoop=1;jettySize=auto;html=1;exitX=0.5;exitY=1;exitDx=0;exitDy=0;fontStyle=1" edge="1" parent="1" source="QDy_m5PdwNHntxYYZvBB-36" target="QDy_m5PdwNHntxYYZvBB-40">
          <mxGeometry relative="1" as="geometry" />
        </mxCell>
        <mxCell id="QDy_m5PdwNHntxYYZvBB-76" style="edgeStyle=none;rounded=0;orthogonalLoop=1;jettySize=auto;html=1;exitX=0.5;exitY=1;exitDx=0;exitDy=0;fontStyle=1" edge="1" parent="1" source="QDy_m5PdwNHntxYYZvBB-36" target="QDy_m5PdwNHntxYYZvBB-42">
          <mxGeometry relative="1" as="geometry" />
        </mxCell>
        <mxCell id="QDy_m5PdwNHntxYYZvBB-36" value="nonprod" style="text;html=1;strokeColor=none;fillColor=none;align=center;verticalAlign=middle;whiteSpace=wrap;rounded=0;fontSize=13;fontStyle=1" vertex="1" parent="1">
          <mxGeometry x="93.1" y="317" width="60" height="14" as="geometry" />
        </mxCell>
        <mxCell id="QDy_m5PdwNHntxYYZvBB-38" value="" style="sketch=0;outlineConnect=0;fontColor=#232F3E;gradientColor=none;fillColor=#E7157B;strokeColor=none;dashed=0;verticalLabelPosition=bottom;verticalAlign=top;align=center;html=1;fontSize=13;fontStyle=1;aspect=fixed;pointerEvents=1;shape=mxgraph.aws4.organizations_organizational_unit2;" vertex="1" parent="1">
          <mxGeometry x="213.09999999999994" y="265" width="50" height="50" as="geometry" />
        </mxCell>
        <mxCell id="QDy_m5PdwNHntxYYZvBB-77" style="edgeStyle=none;rounded=0;orthogonalLoop=1;jettySize=auto;html=1;exitX=0.5;exitY=1;exitDx=0;exitDy=0;fontStyle=1" edge="1" parent="1" source="QDy_m5PdwNHntxYYZvBB-39" target="QDy_m5PdwNHntxYYZvBB-51">
          <mxGeometry relative="1" as="geometry" />
        </mxCell>
        <mxCell id="QDy_m5PdwNHntxYYZvBB-39" value="prod" style="text;html=1;strokeColor=none;fillColor=none;align=center;verticalAlign=middle;whiteSpace=wrap;rounded=0;fontSize=13;fontStyle=1" vertex="1" parent="1">
          <mxGeometry x="216.82" y="316" width="42.58" height="15" as="geometry" />
        </mxCell>
        <mxCell id="QDy_m5PdwNHntxYYZvBB-40" value="" style="sketch=0;outlineConnect=0;fontColor=#232F3E;gradientColor=none;fillColor=#E7157B;strokeColor=none;dashed=0;verticalLabelPosition=bottom;verticalAlign=top;align=center;html=1;fontSize=13;fontStyle=1;aspect=fixed;pointerEvents=1;shape=mxgraph.aws4.organizations_account;" vertex="1" parent="1">
          <mxGeometry x="61.55999999999993" y="360.5" width="47.44" height="50" as="geometry" />
        </mxCell>
        <mxCell id="QDy_m5PdwNHntxYYZvBB-41" value="FinanceDev&lt;br&gt;Account" style="text;html=1;strokeColor=none;fillColor=none;align=center;verticalAlign=middle;whiteSpace=wrap;rounded=0;fontSize=12;fontStyle=1" vertex="1" parent="1">
          <mxGeometry x="47.110000000000014" y="410.5" width="76.33" height="30" as="geometry" />
        </mxCell>
        <mxCell id="QDy_m5PdwNHntxYYZvBB-42" value="" style="sketch=0;outlineConnect=0;fontColor=#232F3E;gradientColor=none;fillColor=#E7157B;strokeColor=none;dashed=0;verticalLabelPosition=bottom;verticalAlign=top;align=center;html=1;fontSize=13;fontStyle=1;aspect=fixed;pointerEvents=1;shape=mxgraph.aws4.organizations_account;" vertex="1" parent="1">
          <mxGeometry x="131.00999999999993" y="360.5" width="47.44" height="50" as="geometry" />
        </mxCell>
        <mxCell id="QDy_m5PdwNHntxYYZvBB-47" value="FinanceQA&lt;br&gt;Account" style="text;html=1;strokeColor=none;fillColor=none;align=center;verticalAlign=middle;whiteSpace=wrap;rounded=0;fontSize=12;fontStyle=1" vertex="1" parent="1">
          <mxGeometry x="116.56" y="410.5" width="76.33" height="30" as="geometry" />
        </mxCell>
        <mxCell id="QDy_m5PdwNHntxYYZvBB-49" value="" style="sketch=0;outlineConnect=0;fontColor=#232F3E;gradientColor=none;fillColor=#E7157B;strokeColor=none;dashed=0;verticalLabelPosition=bottom;verticalAlign=top;align=center;html=1;fontSize=13;fontStyle=1;aspect=fixed;pointerEvents=1;shape=mxgraph.aws4.organizations_organizational_unit2;" vertex="1" parent="1">
          <mxGeometry x="153.1" y="80" width="50" height="50" as="geometry" />
        </mxCell>
        <mxCell id="QDy_m5PdwNHntxYYZvBB-78" style="edgeStyle=none;rounded=0;orthogonalLoop=1;jettySize=auto;html=1;exitX=0.5;exitY=1;exitDx=0;exitDy=0;fontStyle=1" edge="1" parent="1" source="QDy_m5PdwNHntxYYZvBB-50" target="QDy_m5PdwNHntxYYZvBB-32">
          <mxGeometry relative="1" as="geometry" />
        </mxCell>
        <mxCell id="QDy_m5PdwNHntxYYZvBB-50" value="workloads" style="text;html=1;strokeColor=none;fillColor=none;align=center;verticalAlign=middle;whiteSpace=wrap;rounded=0;fontSize=13;fontStyle=1" vertex="1" parent="1">
          <mxGeometry x="139.92" y="134" width="76.9" height="10" as="geometry" />
        </mxCell>
        <mxCell id="QDy_m5PdwNHntxYYZvBB-51" value="" style="sketch=0;outlineConnect=0;fontColor=#232F3E;gradientColor=none;fillColor=#E7157B;strokeColor=none;dashed=0;verticalLabelPosition=bottom;verticalAlign=top;align=center;html=1;fontSize=13;fontStyle=1;aspect=fixed;pointerEvents=1;shape=mxgraph.aws4.organizations_account;" vertex="1" parent="1">
          <mxGeometry x="214.38999999999993" y="361" width="47.44" height="50" as="geometry" />
        </mxCell>
        <mxCell id="QDy_m5PdwNHntxYYZvBB-52" value="FinanceProd&lt;br&gt;Account" style="text;html=1;strokeColor=none;fillColor=none;align=center;verticalAlign=middle;whiteSpace=wrap;rounded=0;fontSize=12;fontStyle=1" vertex="1" parent="1">
          <mxGeometry x="199.94" y="411" width="76.33" height="30" as="geometry" />
        </mxCell>
        <mxCell id="QDy_m5PdwNHntxYYZvBB-58" value="" style="sketch=0;outlineConnect=0;fontColor=#232F3E;gradientColor=none;fillColor=#E7157B;strokeColor=none;dashed=0;verticalLabelPosition=bottom;verticalAlign=top;align=center;html=1;fontSize=13;fontStyle=1;aspect=fixed;pointerEvents=1;shape=mxgraph.aws4.organizations_organizational_unit2;fillStyle=auto;" vertex="1" parent="1">
          <mxGeometry x="558.29" y="170" width="50" height="50" as="geometry" />
        </mxCell>
        <mxCell id="QDy_m5PdwNHntxYYZvBB-85" style="edgeStyle=none;rounded=0;orthogonalLoop=1;jettySize=auto;html=1;exitX=0.5;exitY=1;exitDx=0;exitDy=0;fontStyle=1" edge="1" parent="1" source="QDy_m5PdwNHntxYYZvBB-59" target="QDy_m5PdwNHntxYYZvBB-67">
          <mxGeometry relative="1" as="geometry" />
        </mxCell>
        <mxCell id="QDy_m5PdwNHntxYYZvBB-86" style="edgeStyle=none;rounded=0;orthogonalLoop=1;jettySize=auto;html=1;exitX=0.5;exitY=1;exitDx=0;exitDy=0;fontStyle=1" edge="1" parent="1" source="QDy_m5PdwNHntxYYZvBB-59" target="QDy_m5PdwNHntxYYZvBB-60">
          <mxGeometry relative="1" as="geometry" />
        </mxCell>
        <mxCell id="QDy_m5PdwNHntxYYZvBB-59" value="sandbox" style="text;html=1;strokeColor=none;fillColor=none;align=center;verticalAlign=middle;whiteSpace=wrap;rounded=0;fontSize=13;fontStyle=1" vertex="1" parent="1">
          <mxGeometry x="548.29" y="223" width="70" height="10" as="geometry" />
        </mxCell>
        <mxCell id="QDy_m5PdwNHntxYYZvBB-60" value="" style="sketch=0;outlineConnect=0;fontColor=#232F3E;gradientColor=none;fillColor=#E7157B;strokeColor=none;dashed=0;verticalLabelPosition=bottom;verticalAlign=top;align=center;html=1;fontSize=13;fontStyle=1;aspect=fixed;pointerEvents=1;shape=mxgraph.aws4.organizations_account;" vertex="1" parent="1">
          <mxGeometry x="599.56" y="265" width="47.44" height="50" as="geometry" />
        </mxCell>
        <mxCell id="QDy_m5PdwNHntxYYZvBB-61" value="San99tiago&lt;br&gt;Sandbox2&lt;br&gt;Account" style="text;html=1;strokeColor=none;fillColor=none;align=center;verticalAlign=middle;whiteSpace=wrap;rounded=0;fontSize=12;fontStyle=1" vertex="1" parent="1">
          <mxGeometry x="590.83" y="317" width="64.9" height="45" as="geometry" />
        </mxCell>
        <mxCell id="QDy_m5PdwNHntxYYZvBB-62" value="" style="sketch=0;outlineConnect=0;fontColor=#232F3E;gradientColor=none;fillColor=#E7157B;strokeColor=none;dashed=0;verticalLabelPosition=bottom;verticalAlign=top;align=center;html=1;fontSize=13;fontStyle=1;aspect=fixed;pointerEvents=1;shape=mxgraph.aws4.organizations_organizational_unit2;" vertex="1" parent="1">
          <mxGeometry x="670.58" y="80" width="50" height="50" as="geometry" />
        </mxCell>
        <mxCell id="QDy_m5PdwNHntxYYZvBB-66" style="edgeStyle=orthogonalEdgeStyle;rounded=0;orthogonalLoop=1;jettySize=auto;html=1;exitX=0.5;exitY=1;exitDx=0;exitDy=0;fontStyle=1" edge="1" parent="1" source="QDy_m5PdwNHntxYYZvBB-63" target="QDy_m5PdwNHntxYYZvBB-64">
          <mxGeometry relative="1" as="geometry" />
        </mxCell>
        <mxCell id="QDy_m5PdwNHntxYYZvBB-63" value="PolicyStagingTests" style="text;html=1;strokeColor=none;fillColor=none;align=center;verticalAlign=middle;whiteSpace=wrap;rounded=0;fontSize=13;fontStyle=1" vertex="1" parent="1">
          <mxGeometry x="635.58" y="134" width="120" height="17" as="geometry" />
        </mxCell>
        <mxCell id="QDy_m5PdwNHntxYYZvBB-64" value="" style="sketch=0;outlineConnect=0;fontColor=#232F3E;gradientColor=none;fillColor=#E7157B;strokeColor=none;dashed=0;verticalLabelPosition=bottom;verticalAlign=top;align=center;html=1;fontSize=13;fontStyle=1;aspect=fixed;pointerEvents=1;shape=mxgraph.aws4.organizations_account;" vertex="1" parent="1">
          <mxGeometry x="671.8599999999999" y="170" width="47.44" height="50" as="geometry" />
        </mxCell>
        <mxCell id="QDy_m5PdwNHntxYYZvBB-65" value="Policy Staging&lt;br&gt;Tests Account" style="text;html=1;strokeColor=none;fillColor=none;align=center;verticalAlign=middle;whiteSpace=wrap;rounded=0;fontSize=12;fontStyle=1" vertex="1" parent="1">
          <mxGeometry x="650.58" y="220" width="90" height="31" as="geometry" />
        </mxCell>
        <mxCell id="QDy_m5PdwNHntxYYZvBB-67" value="" style="sketch=0;outlineConnect=0;fontColor=#232F3E;gradientColor=none;fillColor=#E7157B;strokeColor=none;dashed=0;verticalLabelPosition=bottom;verticalAlign=top;align=center;html=1;fontSize=13;fontStyle=1;aspect=fixed;pointerEvents=1;shape=mxgraph.aws4.organizations_account;" vertex="1" parent="1">
          <mxGeometry x="524.4499999999999" y="265" width="47.44" height="50" as="geometry" />
        </mxCell>
        <mxCell id="QDy_m5PdwNHntxYYZvBB-68" value="San99tiago&lt;br&gt;Sandbox1&lt;br&gt;Account" style="text;html=1;strokeColor=none;fillColor=none;align=center;verticalAlign=middle;whiteSpace=wrap;rounded=0;fontSize=12;fontStyle=1" vertex="1" parent="1">
          <mxGeometry x="513.17" y="317" width="70" height="45" as="geometry" />
        </mxCell>
      </root>
    </mxGraphModel>
  </diagram>
</mxfile>
